<?xml version="1.0" standalone="no"?>
<!DOCTYPE svg PUBLIC "-//W3C//DTD SVG 20010904//EN"
 "http://www.w3.org/TR/2001/REC-SVG-20010904/DTD/svg10.dtd">
<svg version="1.0" xmlns="http://www.w3.org/2000/svg"
 width="512.000000pt" height="512.000000pt" viewBox="0 0 512.000000 512.000000"
 preserveAspectRatio="xMidYMid meet">

<g transform="translate(0.000000,512.000000) scale(0.100000,-0.100000)"
fill="#000000" stroke="none">
<path fill="#5b86ff" d="M2430 4819 c-62 -25 -92 -75 -160 -266 l-44 -123 -373 0 -373 0 0
113 c0 129 -11 162 -73 211 l-39 31 -213 3 c-251 4 -282 -3 -332 -79 -26 -40
-28 -50 -31 -165 l-4 -122 -32 -6 c-47 -9 -119 -59 -151 -106 -55 -79 -55 -79
-55 -921 l0 -776 -172 -32 c-95 -19 -193 -42 -218 -53 -88 -38 -148 -118 -156
-212 -4 -39 34 -255 166 -931 94 -484 176 -896 182 -915 11 -35 49 -94 78
-118 35 -30 117 -62 160 -62 76 0 809 146 831 166 44 40 10 124 -50 124 -16 0
-191 -31 -389 -70 -198 -38 -374 -70 -390 -70 -41 0 -89 42 -101 88 -5 20 -85
425 -176 899 -107 552 -165 872 -161 889 12 47 55 79 121 92 84 15 1142 221
1591 308 217 42 234 44 267 30 20 -8 42 -25 50 -38 14 -21 357 -1758 357
-1806 0 -32 -21 -70 -48 -88 -14 -9 -188 -48 -402 -89 -208 -41 -387 -78 -398
-84 -23 -12 -32 -32 -32 -70 0 -37 33 -65 73 -64 70 2 764 144 811 165 84 39
146 136 146 228 0 20 -20 141 -45 269 -25 128 -45 238 -45 246 0 13 61 15 434
15 l435 0 20 26 c27 35 26 57 -3 91 l-24 28 -449 3 -449 3 -33 172 c-18 95
-35 185 -38 200 l-6 28 74 -48 c335 -217 781 -239 1139 -58 226 114 438 337
537 564 l32 76 351 3 350 2 0 -420 c0 -449 0 -450 -50 -495 -21 -19 -40 -20
-586 -25 -563 -5 -563 -5 -585 -27 -29 -29 -28 -81 2 -105 20 -17 62 -18 588
-18 l566 0 50 24 c66 30 131 104 150 171 13 44 15 219 13 1326 l-3 1274 -22
41 c-34 64 -71 103 -127 132 l-51 27 -494 5 -494 5 -39 105 c-21 58 -45 125
-54 149 -19 50 -65 106 -105 127 -24 12 -126 14 -651 13 -389 0 -632 -4 -648
-10z m1260 -181 c10 -24 32 -80 49 -125 l30 -83 -690 0 c-379 0 -689 4 -689 9
0 10 76 217 85 231 4 6 226 10 601 10 l595 0 19 -42z m-2362 -105 l3 -103
-196 0 -195 0 0 93 c0 60 4 97 12 105 9 9 61 12 193 10 l180 -3 3 -102z m2
-1011 l0 -758 -117 -22 c-65 -12 -121 -22 -125 -22 -5 0 -8 194 -8 430 0 469
-1 481 -56 517 -23 15 -55 19 -173 23 l-146 5 -3 235 c-2 264 2 284 67 327 33
22 40 23 297 23 l264 0 0 -758z m3569 740 c72 -38 71 -35 71 -529 l0 -443
-351 0 -351 0 -6 23 c-13 49 -96 201 -151 274 -343 460 -941 603 -1451 348
-247 -123 -442 -337 -554 -608 l-15 -37 -303 2 -303 3 -3 493 -2 492 1693 0
c1620 0 1694 -1 1726 -18z m-1477 -381 c174 -46 328 -131 451 -250 409 -394
416 -1033 18 -1432 -359 -358 -913 -396 -1317 -90 -137 103 -127 83 -183 367
-28 144 -58 268 -69 291 -22 43 -78 97 -120 116 -24 11 -25 12 -19 107 15 263
164 541 377 705 144 111 282 170 490 209 61 11 297 -3 372 -23z m-2494 -768
l-3 -428 -90 -17 c-49 -9 -100 -17 -112 -18 l-23 0 0 445 0 445 115 0 115 0
-2 -427z m1118 5 c-3 -13 -9 -67 -13 -120 -3 -54 -6 -98 -7 -98 -1 0 -116 -22
-256 -50 -140 -27 -263 -50 -272 -50 -16 0 -18 15 -18 170 l0 170 286 0 286 0
-6 -22z m2924 -213 l0 -235 -331 0 c-314 0 -330 1 -325 18 4 10 11 64 16 121
9 95 1 262 -16 314 -5 16 15 17 325 17 l331 0 0 -235z"/>
<path fill="#5b86ff" d="M4242 4023 c-21 -8 -43 -61 -36 -88 12 -48 36 -55 192 -55 138 0 144
1 167 25 14 13 25 36 25 50 0 14 -11 37 -25 50 -23 24 -28 25 -167 24 -79 0
-149 -3 -156 -6z"/>
<path fill="#5b86ff" d="M3075 3659 c-189 -29 -353 -121 -481 -271 -53 -62 -127 -207 -149
-293 -50 -192 -19 -403 86 -583 47 -80 180 -210 264 -260 117 -69 210 -95 355
-100 182 -6 304 27 442 117 235 155 359 399 346 681 -16 325 -239 601 -559
690 -86 23 -221 32 -304 19z m253 -160 c171 -41 330 -174 406 -340 108 -236
62 -494 -123 -679 -123 -123 -257 -180 -424 -180 -114 0 -176 14 -272 61 -365
178 -457 654 -184 953 94 102 219 172 351 195 61 11 177 6 246 -10z"/>
<path fill="#5b86ff" d="M1205 2366 c-374 -73 -697 -136 -718 -140 -49 -9 -105 -58 -113 -100
-4 -22 37 -245 127 -695 127 -636 133 -664 161 -692 44 -44 75 -44 279 -5 877
167 1240 240 1274 257 45 21 75 63 75 106 0 39 -256 1318 -269 1341 -15 28
-55 51 -98 56 -25 4 -267 -40 -718 -128z m731 -231 c36 -180 39 -205 25 -209
-9 -3 -76 -17 -148 -31 -73 -14 -170 -39 -215 -54 -154 -52 -196 -79 -413
-261 -33 -28 -94 -68 -135 -89 -111 -58 -363 -134 -379 -115 -5 5 -39 164 -76
352 -48 240 -65 346 -57 351 6 3 111 26 234 49 123 24 414 80 648 126 234 46
436 84 450 85 25 1 26 -1 66 -204z m135 -685 c36 -181 65 -330 65 -331 -6 -3
-1362 -265 -1364 -263 -3 2 -72 342 -72 355 0 3 48 18 108 34 240 61 372 129
552 284 108 94 165 128 270 165 65 23 315 82 360 85 12 1 29 -67 81 -329z"/>
</g>
</svg>
