<?xml version="1.0" standalone="no"?>
<!DOCTYPE svg PUBLIC "-//W3C//DTD SVG 20010904//EN"
 "http://www.w3.org/TR/2001/REC-SVG-20010904/DTD/svg10.dtd">
<svg version="1.0" xmlns="http://www.w3.org/2000/svg"
 width="512.000000pt" height="512.000000pt" viewBox="0 0 512.000000 512.000000"
 preserveAspectRatio="xMidYMid meet">

<g transform="translate(0.000000,512.000000) scale(0.100000,-0.100000)"
fill="#000000" stroke="none">
<path fill="#5b86ff" d="M320 4947 c-49 -16 -133 -102 -148 -153 -18 -60 -18 -3608 0 -3668
16 -55 99 -138 154 -154 31 -9 251 -12 883 -12 798 0 842 -1 837 -17 -19 -66
-133 -446 -157 -525 l-30 -98 -129 0 -130 0 0 -80 0 -80 960 0 960 0 0 80 0
80 -130 0 -129 0 -30 98 c-24 79 -138 459 -157 525 -5 16 40 17 839 17 959 0
904 -4 980 80 24 26 49 66 55 88 17 57 17 3607 0 3664 -6 22 -31 62 -55 88
-79 88 145 80 -2337 79 -1574 -1 -2211 -4 -2236 -12z m4455 -172 l25 -24 0
-1576 0 -1575 -2240 0 -2240 0 0 1575 0 1576 25 24 24 25 2191 0 2191 0 24
-25z m25 -3470 c0 -131 -1 -137 -25 -160 l-24 -25 -2191 0 -2191 0 -24 25
c-24 23 -25 29 -25 160 l0 135 2240 0 2240 0 0 -135z m-1871 -442 c24 -80 138
-460 157 -525 5 -17 -25 -18 -526 -18 -501 0 -531 1 -526 18 3 9 44 148 91
307 47 160 88 296 90 303 3 9 81 12 344 12 l340 0 30 -97z"/>
<path fill="#5b86ff" d="M1634 4472 c-78 -184 -68 -172 -192 -221 l-47 -19 -170 68 -170 69
-152 -151 -151 -151 18 -46 c10 -25 32 -82 50 -126 18 -44 40 -100 50 -125
l18 -45 -32 -75 c-17 -41 -34 -79 -38 -85 -3 -5 -81 -41 -172 -80 l-166 -70 0
-215 0 -215 166 -70 c91 -38 169 -74 172 -80 4 -5 21 -44 38 -85 l32 -75 -18
-45 c-10 -25 -32 -81 -50 -125 -18 -44 -40 -101 -50 -126 l-18 -46 151 -151
152 -151 160 65 c88 36 169 66 180 66 11 0 53 -14 94 -32 40 -17 77 -28 81
-23 9 9 61 135 57 138 -1 1 -53 23 -116 49 l-113 47 -155 -62 -155 -62 -75 76
-76 75 62 154 62 154 -59 143 -59 143 -152 65 -151 65 0 108 0 108 151 65 152
65 59 143 59 143 -62 154 -62 154 76 75 75 76 155 -62 154 -62 143 59 142 60
65 151 65 151 108 0 108 0 65 -151 64 -151 144 -59 143 -59 154 61 154 62 79
-79 79 -79 55 55 55 55 -117 117 -118 117 -160 -65 c-88 -36 -167 -66 -175
-66 -15 -2 -144 48 -165 63 -5 4 -41 82 -80 173 l-70 166 -215 0 -215 0 -71
-168z"/>
<path fill="#5b86ff" d="M1920 3907 c-49 -16 -133 -102 -148 -153 -17 -59 -17 -1769 0 -1828
16 -55 99 -138 154 -154 32 -9 336 -12 1276 -12 1397 0 1294 -6 1371 80 24 26
49 66 55 88 17 56 17 1448 0 1504 -6 22 -31 62 -55 88 -74 82 -55 80 -696 80
l-560 0 -141 139 c-78 76 -157 147 -176 157 -33 18 -66 19 -540 21 -350 1
-516 -2 -540 -10z m1144 -286 c78 -76 157 -147 176 -157 33 -18 71 -19 618
-24 l584 -5 19 -24 c18 -22 19 -49 19 -733 l0 -709 -25 -24 -24 -25 -1231 0
-1231 0 -24 25 -25 24 0 871 0 871 25 24 24 25 477 0 477 0 141 -139z"/>
<path fill="#5b86ff" d="M2430 2945 l-225 -225 228 -227 227 -228 57 58 58 57 -170 170 -170
170 168 168 c92 92 167 172 167 177 0 13 -92 105 -105 105 -6 0 -111 -101
-235 -225z"/>
<path fill="#5b86ff" d="M3677 3122 c-26 -26 -47 -52 -47 -57 0 -5 75 -85 167 -177 l168 -168
-170 -170 -170 -170 58 -57 57 -58 227 228 228 227 -225 225 c-124 124 -230
225 -235 225 -6 0 -32 -22 -58 -48z"/>
<path fill="#5b86ff" d="M3172 2720 c-107 -192 -194 -353 -194 -357 -1 -12 126 -82 134 -75 9
9 388 691 391 704 2 10 -110 78 -128 78 -5 -1 -97 -158 -203 -350z"/>
<path fill="#5b86ff" d="M1477 3865 c-168 -113 -277 -270 -335 -480 -11 -41 -17 -100 -17
-185 0 -224 76 -411 229 -564 58 -58 181 -146 204 -146 10 0 72 115 72 134 0
2 -24 19 -52 36 -88 54 -180 157 -227 251 -94 191 -94 387 0 578 47 94 139
197 227 251 28 17 52 34 52 36 0 19 -62 134 -72 134 -7 0 -44 -20 -81 -45z"/>
</g>
</svg>
